<?xml version="1.0" standalone="no"?>
<!DOCTYPE svg PUBLIC "-//W3C//DTD SVG 20010904//EN"
 "http://www.w3.org/TR/2001/REC-SVG-20010904/DTD/svg10.dtd">
<svg version="1.0" xmlns="http://www.w3.org/2000/svg"
 width="1000.000000pt" height="1000.000000pt" viewBox="0 0 1000.000000 1000.000000"
 preserveAspectRatio="xMidYMid meet">

<g transform="translate(0.000000,1000.000000) scale(0.100000,-0.100000)"
fill="#000000" stroke="none">
<path d="M4754 9800 c-5 -5 -75 -12 -154 -16 -80 -3 -154 -9 -165 -14 -11 -5
-59 -11 -108 -13 -48 -3 -93 -10 -101 -16 -7 -6 -60 -16 -117 -22 -57 -6 -113
-14 -124 -19 -11 -5 -41 -11 -67 -15 -25 -3 -52 -13 -58 -20 -7 -8 -28 -15
-46 -15 -19 0 -34 -4 -34 -9 0 -5 -21 -11 -47 -15 -27 -3 -61 -13 -76 -21 -15
-8 -43 -17 -63 -21 -19 -3 -36 -10 -39 -14 -3 -5 -24 -11 -48 -15 -23 -4 -48
-12 -55 -18 -7 -5 -15 -7 -19 -4 -3 4 -15 0 -27 -8 -11 -8 -33 -15 -48 -15
-15 0 -29 -4 -32 -9 -3 -5 -26 -12 -50 -15 -30 -5 -54 -17 -73 -35 -15 -16
-44 -31 -65 -35 -20 -4 -38 -10 -40 -14 -4 -10 -65 -38 -113 -53 -22 -6 -44
-15 -50 -19 -34 -26 -148 -80 -169 -80 -15 0 -47 -18 -78 -43 -29 -23 -69 -49
-88 -57 -19 -7 -44 -20 -55 -27 -11 -7 -27 -13 -35 -13 -9 0 -27 -12 -41 -26
-13 -14 -40 -33 -59 -42 -19 -10 -39 -27 -45 -39 -6 -14 -22 -25 -40 -29 -18
-3 -65 -37 -120 -85 -49 -43 -94 -79 -100 -79 -6 0 -41 -27 -78 -61 -37 -33
-67 -57 -67 -53 0 5 -21 -12 -48 -38 -26 -25 -64 -53 -84 -63 -21 -9 -40 -25
-43 -35 -9 -29 -46 -71 -71 -80 -12 -5 -28 -21 -36 -36 -7 -15 -29 -36 -48
-46 -36 -19 -100 -85 -100 -103 0 -5 -18 -27 -40 -49 -22 -21 -40 -45 -40 -52
0 -8 -5 -14 -12 -14 -13 0 -118 -108 -118 -122 0 -5 -23 -35 -50 -67 -28 -32
-50 -63 -50 -69 0 -7 -16 -29 -35 -51 -19 -21 -35 -43 -35 -49 0 -5 -7 -12
-15 -16 -8 -3 -15 -10 -15 -16 0 -6 -19 -36 -42 -65 -88 -112 -118 -153 -118
-165 0 -7 -11 -25 -25 -42 -14 -16 -25 -38 -25 -47 0 -10 -11 -30 -24 -44 -13
-14 -27 -39 -31 -56 -3 -16 -19 -46 -35 -67 -16 -22 -30 -44 -30 -50 0 -6 -7
-17 -15 -24 -8 -6 -14 -15 -13 -18 3 -12 -26 -82 -33 -82 -11 0 -49 -78 -49
-101 0 -17 -18 -58 -52 -119 -4 -8 -11 -22 -14 -30 -3 -8 -12 -27 -20 -42 -8
-14 -14 -39 -14 -56 0 -16 -6 -35 -14 -41 -8 -7 -17 -30 -21 -52 -4 -21 -11
-41 -16 -45 -11 -6 -12 -54 -1 -54 4 0 18 30 30 68 56 160 129 333 216 508
228 458 507 845 876 1214 218 219 350 333 577 497 251 183 406 277 675 410
537 265 1135 432 1703 474 237 18 655 15 873 -5 416 -38 859 -149 1312 -327
179 -70 522 -244 693 -351 106 -67 137 -82 137 -68 0 22 -16 35 -55 44 -16 4
-46 19 -65 34 -19 15 -53 36 -75 47 -22 11 -46 28 -53 38 -7 9 -19 17 -26 17
-19 0 -72 28 -86 45 -7 8 -20 15 -30 15 -9 0 -29 9 -43 20 -14 11 -31 20 -38
20 -6 0 -26 11 -43 24 -17 12 -49 29 -71 37 -22 7 -44 16 -50 20 -5 3 -23 9
-40 13 -43 10 -98 38 -113 59 -7 9 -24 17 -38 17 -13 0 -32 4 -42 9 -9 6 -38
13 -64 16 -27 3 -48 11 -48 16 0 8 -26 22 -60 34 -3 1 -12 4 -20 8 -8 3 -34 8
-58 11 -24 4 -51 11 -60 16 -53 29 -165 66 -189 61 -6 -1 -14 3 -18 9 -3 5
-14 10 -23 10 -10 0 -34 9 -55 20 -23 12 -56 20 -86 20 -28 0 -52 4 -55 8 -3
5 -57 14 -121 22 -63 7 -118 16 -120 20 -3 5 -40 11 -83 15 -42 4 -81 11 -87
15 -5 4 -86 11 -180 15 -93 3 -174 10 -180 15 -14 11 -479 12 -491 0z"/>
<path d="M4720 9673 c-533 -39 -963 -137 -1435 -325 -646 -257 -1207 -646
-1700 -1178 -411 -444 -743 -996 -940 -1561 -130 -374 -221 -816 -256 -1244
-22 -270 1 -735 51 -1040 126 -758 397 -1397 871 -2047 207 -283 558 -658 829
-883 496 -414 937 -666 1480 -848 494 -167 911 -227 1460 -214 766 19 1437
218 2125 630 190 114 473 319 661 478 149 126 509 488 630 634 355 429 594
825 777 1290 148 375 231 685 287 1069 34 237 43 408 37 723 -9 503 -76 899
-232 1369 -110 330 -213 563 -375 845 -219 384 -430 658 -750 980 -534 535
-1168 912 -1919 1139 -430 130 -856 191 -1310 188 -135 -1 -266 -3 -291 -5z
m775 -138 c419 -51 776 -139 1159 -287 431 -165 858 -420 1251 -747 112 -93
391 -372 506 -506 281 -327 589 -838 748 -1244 129 -328 220 -675 270 -1026
38 -267 45 -361 45 -645 0 -431 -34 -716 -135 -1123 -165 -665 -492 -1293
-939 -1802 -129 -147 -403 -420 -408 -405 -10 28 54 113 224 300 243 267 390
452 490 617 10 17 59 97 107 177 287 474 478 1025 556 1602 71 522 67 841 -15
1354 -91 567 -263 1045 -559 1549 -274 466 -708 950 -1138 1269 -284 210 -705
446 -1013 566 -415 161 -659 220 -1224 292 -161 21 -557 24 -749 5 -293 -27
-627 -85 -866 -150 -617 -168 -1246 -509 -1738 -941 -662 -582 -1111 -1298
-1351 -2155 -55 -195 -103 -456 -133 -719 -26 -233 -23 -714 5 -951 83 -691
259 -1208 605 -1785 162 -269 320 -475 622 -810 203 -226 722 -680 776 -680 8
0 32 6 54 14 22 8 83 17 135 20 164 12 180 20 109 57 -23 11 -64 43 -91 70
-160 160 -140 410 44 545 75 55 145 78 233 79 83 0 153 -32 169 -77 13 -36 3
-45 -28 -24 -24 15 -27 15 -61 -9 -46 -31 -74 -40 -87 -27 -7 7 5 21 36 43 25
19 45 37 46 41 0 4 -18 12 -41 18 -85 23 -206 -26 -289 -117 -59 -64 -80 -123
-80 -221 0 -230 220 -380 465 -317 89 24 162 68 246 149 118 114 203 166 349
216 208 72 485 42 627 -66 47 -35 118 -162 138 -246 27 -108 17 -224 -25 -314
-66 -137 -207 -243 -368 -274 -112 -22 -258 9 -326 71 -26 23 -29 31 -20 46
17 28 47 26 114 -8 79 -40 165 -48 264 -25 253 60 395 291 295 482 -61 118
-178 207 -310 239 -84 19 -248 19 -324 0 -209 -55 -367 -169 -442 -321 -31
-64 -36 -85 -41 -167 -6 -115 16 -194 81 -292 35 -54 51 -68 97 -89 183 -82
565 -187 805 -220 212 -30 321 -40 328 -29 3 4 -16 40 -42 78 -54 81 -81 157
-81 227 0 59 15 56 24 -5 8 -51 52 -147 92 -199 16 -21 52 -56 79 -79 l50 -42
190 6 c251 6 282 19 195 79 -39 27 -100 101 -100 121 0 6 21 -12 48 -40 31
-32 77 -64 131 -91 73 -37 92 -42 150 -42 142 0 356 45 479 101 125 56 224
184 239 307 7 58 -17 156 -51 210 -51 82 -168 153 -271 165 -109 14 -242 -39
-292 -114 -35 -54 -43 -140 -17 -194 30 -64 125 -106 189 -85 41 14 85 63 85
95 0 30 -37 71 -70 79 -33 7 -87 -25 -93 -56 -4 -20 -4 -20 -6 5 -3 62 73 96
138 63 99 -52 72 -196 -41 -224 -141 -36 -276 100 -248 249 13 66 31 98 80
143 116 105 285 112 462 19 124 -65 197 -171 206 -299 6 -92 -17 -166 -75
-245 -24 -33 -43 -61 -43 -64 0 -24 219 47 329 106 153 82 258 207 307 365 23
72 26 97 22 177 -3 81 -8 102 -39 167 -62 131 -189 232 -327 261 -56 11 -211
7 -277 -8 -26 -5 -28 -4 -18 9 7 8 42 30 78 48 115 58 249 53 391 -15 179 -86
277 -247 277 -450 -1 -144 -61 -295 -166 -415 -36 -41 -37 -45 -18 -48 25 -4
226 99 368 188 217 137 307 222 367 350 27 57 31 76 31 150 0 71 -4 94 -26
140 -101 213 -386 252 -582 80 -48 -42 -67 -50 -67 -25 0 32 70 92 152 131 75
35 92 39 176 42 82 4 103 1 168 -23 129 -47 208 -137 239 -270 18 -76 15 -131
-12 -225 -45 -158 -127 -243 -396 -412 -365 -230 -959 -445 -1454 -528 -359
-60 -826 -65 -1218 -14 -563 73 -1212 317 -1705 643 -313 206 -489 350 -771
631 -313 313 -444 469 -661 790 -541 799 -780 1639 -755 2656 8 339 42 601
122 947 156 674 511 1354 983 1880 118 133 357 367 472 463 519 435 1055 713
1785 923 169 48 551 116 745 131 165 13 724 4 875 -15z m-169 -135 c941 -74
1785 -418 2479 -1008 747 -637 1259 -1506 1439 -2447 67 -349 91 -629 83 -965
-20 -843 -236 -1552 -695 -2280 -101 -160 -98 -156 -114 -143 -7 6 -34 18 -60
28 -46 17 -48 19 -48 57 0 67 -12 78 -84 78 -39 0 -67 5 -72 13 -5 6 -8 49 -6
94 l4 83 34 16 c19 9 37 21 40 26 4 5 -35 48 -85 95 -50 46 -91 89 -91 94 0 5
16 31 36 59 39 54 38 62 -12 104 -18 14 -35 37 -38 51 -8 33 -22 32 -29 -3 -4
-18 -20 -38 -41 -53 -44 -29 -46 -58 -10 -110 l26 -38 -20 -28 c-11 -15 -43
-50 -72 -78 -49 -48 -53 -50 -123 -56 -40 -3 -78 -4 -84 -1 -10 3 -13 67 -13
273 l0 268 32 30 32 29 -58 63 c-87 94 -147 190 -154 244 -8 75 -42 70 -42 -6
0 -42 -66 -150 -143 -235 -52 -57 -57 -73 -27 -92 19 -12 20 -23 20 -317 l0
-305 -182 2 -183 3 -3 150 c-4 194 -4 193 56 197 33 2 47 7 47 17 0 22 -371
311 -399 311 -8 0 -18 -5 -21 -11 -6 -9 -162 -127 -353 -267 -28 -20 -31 -26
-20 -39 8 -10 23 -13 45 -10 25 5 35 1 43 -13 6 -10 10 -96 10 -193 l0 -174
-77 -6 c-46 -3 -83 0 -90 5 -23 18 -15 77 12 102 14 13 25 26 25 29 0 4 -30
39 -66 79 -78 86 -103 130 -101 180 0 21 -2 40 -5 44 -15 15 -28 -11 -28 -57
0 -46 -4 -54 -50 -103 -27 -29 -72 -68 -100 -87 -62 -43 -69 -57 -30 -71 l31
-10 -3 -147 -3 -146 -100 -7 c-55 -4 -118 -12 -141 -17 -37 -10 -47 -8 -97 20
-75 41 -207 88 -270 97 l-52 7 -3 178 -2 178 30 69 c54 123 51 176 -16 288
-74 123 -70 154 40 270 91 95 166 138 261 146 39 3 126 13 195 22 l125 16 58
-35 c93 -56 168 -78 287 -84 176 -8 316 42 428 155 l63 63 60 -21 c95 -32 188
-36 293 -11 269 64 435 260 436 511 0 175 -89 350 -232 456 -67 49 -168 99
-220 109 -61 12 -62 12 -59 137 2 132 -18 227 -72 337 -141 287 -463 474 -817
475 l-124 1 -12 70 c-28 164 -94 295 -209 411 -167 169 -380 253 -644 255
-171 1 -356 -42 -477 -112 -28 -16 -56 -29 -62 -29 -6 0 -20 30 -32 67 -36
112 -104 216 -211 321 -220 219 -547 319 -869 267 -210 -34 -365 -111 -505
-250 -80 -79 -97 -102 -141 -193 -45 -94 -51 -102 -74 -98 -14 2 -63 12 -110
21 -169 34 -368 6 -532 -75 -145 -72 -237 -149 -317 -265 -88 -127 -131 -262
-131 -414 0 -221 130 -445 326 -564 29 -17 54 -39 54 -47 0 -10 -28 -26 -76
-44 -175 -67 -372 -224 -453 -359 -62 -105 -84 -180 -84 -292 -1 -131 23 -198
98 -271 66 -65 138 -94 234 -94 l68 0 65 -62 c117 -113 256 -165 413 -155 93
6 236 42 304 77 39 19 61 13 61 -17 0 -22 49 -113 96 -180 126 -177 324 -276
554 -277 130 0 189 13 307 71 163 79 285 219 308 353 4 23 13 44 21 47 36 13
176 -44 247 -101 72 -57 291 -333 355 -446 66 -118 152 -373 132 -394 -4 -4
-72 47 -149 115 -120 104 -141 126 -139 148 2 20 -1 26 -17 26 -13 0 -21 -8
-23 -23 -5 -34 -358 -333 -440 -372 -51 -25 -53 -50 -4 -62 l32 -9 0 -107 c0
-59 3 -123 5 -142 7 -44 -5 -64 -34 -55 -42 13 -258 172 -269 198 -9 18 -40 2
-111 -56 -42 -35 -113 -90 -158 -121 -46 -32 -83 -62 -83 -66 0 -5 9 -14 20
-20 14 -8 20 -21 20 -45 0 -19 -3 -35 -7 -36 -5 0 -46 -1 -93 -2 l-85 -2 0
120 0 120 40 5 c28 3 40 10 40 21 0 9 -45 53 -100 99 -55 46 -130 110 -166
142 -37 32 -71 58 -76 58 -6 0 -18 -10 -29 -21 -23 -26 -217 -195 -259 -226
-27 -19 -29 -24 -17 -42 22 -37 15 -42 -50 -39 l-63 3 -3 145 c-3 172 0 190
32 190 55 0 78 38 36 60 -30 16 -140 149 -182 221 -23 38 -38 77 -38 96 0 41
-17 86 -30 78 -5 -3 -10 -30 -10 -58 0 -29 -9 -70 -19 -92 -20 -45 -181 -239
-212 -255 -38 -21 -22 -48 35 -59 l31 -7 5 -244 c3 -135 1 -249 -3 -255 -4 -5
-34 -15 -65 -22 -31 -6 -67 -14 -80 -18 -21 -7 -22 -5 -22 48 0 52 2 56 30 66
19 6 30 17 30 28 0 10 -36 49 -80 86 -88 75 -102 104 -76 147 23 39 21 48 -23
95 -21 23 -41 48 -45 56 -5 12 -7 12 -13 -1 -3 -8 -26 -36 -51 -63 -45 -47
-46 -49 -33 -80 28 -68 27 -71 -40 -133 -34 -33 -74 -70 -88 -83 l-25 -24 27
-19 c24 -17 27 -27 27 -73 0 -44 -4 -56 -20 -65 -12 -6 -20 -21 -20 -35 0 -27
-10 -38 -60 -64 -19 -10 -41 -30 -48 -45 -31 -62 -65 -25 -228 244 -323 535
-501 1028 -589 1625 -37 259 -48 456 -42 760 10 472 73 851 212 1270 152 462
383 899 661 1255 371 474 798 852 1274 1125 592 340 1198 529 1870 584 152 12
506 13 656 1z m-1622 -2369 c-44 -15 -90 -34 -102 -40 -37 -19 -25 5 13 28 44
25 89 39 135 40 28 0 20 -5 -46 -28z m-218 -57 c79 -26 75 -34 -19 -34 -87 0
-183 -15 -204 -32 -20 -16 -26 12 -7 33 21 23 94 47 145 48 19 1 58 -6 85 -15z
m586 -52 c62 -47 110 -113 95 -129 -4 -4 -27 15 -50 42 -41 47 -64 70 -117
114 -20 16 -21 20 -8 21 9 0 45 -22 80 -48z m-124 -178 c23 -20 47 -45 53 -55
10 -20 9 -20 -20 -4 -37 19 -101 74 -101 86 0 19 28 8 68 -27z m-135 -54 c68
-17 115 -40 154 -77 17 -16 17 -37 -1 -30 -7 3 -18 1 -22 -3 -5 -5 -47 -14
-94 -19 -94 -11 -143 -26 -210 -65 -25 -14 -51 -26 -59 -26 -34 0 72 79 124
93 11 3 32 8 48 11 15 4 27 11 27 16 0 49 -249 3 -360 -66 -81 -49 -130 -141
-130 -240 0 -83 -37 -124 -62 -69 -8 19 -8 31 0 50 7 14 12 38 12 53 0 34 30
126 56 171 30 54 124 140 179 166 57 26 161 50 236 54 14 0 60 -8 102 -19z
m-663 -113 c0 -5 -4 -5 -10 -2 -5 3 -10 14 -10 23 0 15 2 15 10 2 5 -8 10 -19
10 -23z m1356 -141 c44 -8 93 -17 109 -19 l30 -4 -30 -2 c-16 -1 -55 -8 -85
-16 -30 -8 -75 -15 -100 -15 -63 0 -144 -22 -222 -60 -71 -33 -76 -38 -56 -58
18 -18 -5 -37 -70 -56 -78 -23 -134 -57 -151 -92 -8 -16 -18 -30 -23 -32 -12
-5 -10 -50 2 -57 6 -4 29 9 50 29 39 35 60 45 60 27 0 -5 -29 -34 -64 -65 -36
-31 -68 -66 -71 -76 -10 -33 -25 -22 -25 18 0 68 21 165 46 216 72 145 251
250 459 269 22 2 45 4 51 5 7 1 47 -5 90 -12z m-1633 -35 c25 -21 33 -38 41
-83 9 -49 -6 -48 -29 1 -9 22 -30 52 -46 67 -16 15 -29 32 -29 37 0 12 41 -2
63 -22z m1953 -42 c18 -11 38 -27 45 -37 12 -15 12 -15 -1 -5 -8 6 -35 14 -60
18 -34 5 -48 12 -57 31 -10 23 -10 24 15 18 15 -4 41 -15 58 -25z m-1616 -86
c0 -2 -4 -3 -10 -3 -5 0 -10 8 -10 18 0 10 -5 23 -11 29 -6 6 -8 17 -4 23 5 8
13 -2 21 -26 8 -22 14 -40 14 -41z m1475 68 c-6 -5 -35 -13 -65 -19 -30 -6
-66 -14 -80 -18 -43 -12 -9 13 40 30 49 17 120 22 105 7z m-2052 -43 c19 -10
19 -10 11 -33 -6 -14 -9 -14 -30 6 -21 20 -26 20 -73 9 -66 -16 -108 -45 -146
-100 -22 -34 -31 -40 -33 -27 -2 9 5 32 15 50 21 36 106 104 138 110 26 6 95
-3 118 -15z m2542 -73 c105 -42 199 -122 246 -211 33 -60 40 -107 11 -64 -79
115 -136 168 -242 227 -56 32 -135 53 -195 53 -46 0 -71 10 -53 22 26 17 160
2 233 -27z m-302 18 c-7 -2 -19 -2 -25 0 -7 3 -2 5 12 5 14 0 19 -2 13 -5z
m806 -203 c7 -22 7 -28 -3 -24 -12 5 -76 106 -76 121 1 15 69 -68 79 -97z
m-3554 60 c-3 -10 -1 -29 5 -40 6 -12 10 -31 8 -43 -3 -19 -7 -17 -31 20 -31
48 -34 63 -12 63 8 0 15 5 15 10 0 6 5 10 11 10 6 0 8 -8 4 -20z m2360 -42
c49 -22 21 -33 -86 -34 -57 0 -117 -6 -132 -12 -69 -29 -64 1 6 32 59 27 167
34 212 14z m-779 -50 c74 -19 104 -34 104 -53 0 -20 -4 -19 -118 11 -86 23
-110 26 -207 21 -127 -6 -175 -19 -299 -84 -111 -57 -161 -98 -237 -193 -75
-93 -111 -177 -125 -286 -11 -89 -28 -53 -21 45 8 116 28 175 84 250 121 164
276 264 453 295 95 16 287 13 366 -6z m1300 -48 c41 -7 85 -24 129 -49 70 -41
94 -65 95 -93 0 -27 -17 -22 -62 16 -22 19 -63 42 -91 51 -28 9 -60 23 -71 31
-11 8 -34 14 -51 14 -86 1 -101 28 -20 39 6 0 38 -4 71 -9z m-1416 -29 c0 -5
-26 -22 -57 -37 -32 -15 -71 -38 -86 -51 -16 -13 -34 -23 -40 -23 -6 0 -23
-12 -39 -27 -15 -14 -31 -23 -35 -20 -9 10 65 85 91 93 11 4 32 15 47 26 23
17 92 46 112 48 4 0 7 -4 7 -9z m-1050 -80 c0 -10 -25 -21 -48 -21 -12 1 -10
5 8 15 29 17 40 18 40 6z m3468 -32 c103 -44 169 -126 193 -240 9 -42 9 -53
-2 -60 -25 -16 -49 -10 -49 11 0 30 -48 97 -87 121 -42 26 -36 37 8 15 32 -16
59 -21 59 -11 0 11 -48 80 -67 97 -27 24 -101 56 -161 69 -30 6 -50 15 -46 21
9 13 98 0 152 -23z m-3538 -9 c0 -14 -45 -41 -75 -44 -29 -4 -28 -2 17 30 35
25 58 30 58 14z m1770 -15 c7 -8 18 -15 26 -15 7 0 18 -9 24 -20 14 -26 2 -26
-55 2 -46 22 -60 48 -26 48 10 0 24 -7 31 -15z m-565 -114 c98 -24 125 -34
125 -48 0 -7 -7 -16 -15 -19 -8 -3 -17 -15 -20 -26 -10 -29 -46 -19 -70 19
-12 20 -34 37 -56 44 -35 11 -150 8 -248 -7 -65 -10 -49 16 25 37 66 19 177
19 259 0z m-363 -63 c-6 -6 -15 -8 -19 -4 -4 4 -1 11 7 16 19 12 27 3 12 -12z
m2468 -88 c0 -5 -12 -10 -27 -10 -16 0 -62 -7 -103 -16 -86 -19 -215 -21 -236
-4 -25 22 -3 32 55 26 31 -3 101 -2 156 3 146 12 155 12 155 1z m256 -80 c24
-44 32 -90 16 -90 -9 0 -62 111 -62 130 0 23 23 3 46 -40z m531 28 c-3 -8 -6
-5 -6 6 -1 11 2 17 5 13 3 -3 4 -12 1 -19z m-1825 -60 c36 -101 39 -119 47
-281 8 -167 7 -187 -13 -187 -12 0 -306 285 -306 297 0 4 21 19 48 33 56 30
107 78 117 111 15 47 46 46 71 -3 10 -19 14 -42 10 -62 -4 -18 0 -50 8 -72
l14 -39 7 28 c11 40 1 124 -17 145 -18 20 -31 69 -22 83 9 15 15 6 36 -53z
m133 42 c10 -11 15 -23 12 -27 -8 -7 -47 25 -47 39 0 14 16 9 35 -12z m-2308
-31 c43 -12 109 -37 147 -56 38 -18 75 -32 82 -29 11 4 88 -143 79 -152 -2 -3
-43 21 -90 51 -95 62 -262 131 -340 141 -28 3 -86 1 -130 -4 -180 -24 -175
-24 -175 -8 0 19 36 36 125 58 97 25 207 25 302 -1z m3950 -14 c26 -18 36 -59
25 -100 -13 -47 -27 -35 -29 25 -2 43 -8 59 -25 72 -29 22 -2 25 29 3z m-3277
-111 c77 -45 142 -64 231 -68 81 -4 97 -12 43 -22 -73 -14 -253 44 -324 104
-37 32 -19 26 50 -14z m1190 27 c0 -20 -153 -30 -165 -10 -5 7 7 9 36 4 24 -3
58 -1 74 4 39 12 55 13 55 2z m578 -77 c-41 -22 -48 -104 -8 -104 24 0 84 21
91 32 3 6 9 3 12 -6 4 -9 -1 -19 -11 -24 -25 -13 -133 -35 -139 -28 -11 11 -4
87 12 119 13 29 20 33 42 29 l26 -5 -25 -13z m-1428 -25 c0 -5 -4 -9 -10 -9
-5 0 -10 7 -10 16 0 8 5 12 10 9 6 -3 10 -10 10 -16z m2597 -35 c-3 -3 -12 -4
-19 -1 -8 3 -5 6 6 6 11 1 17 -2 13 -5z m-2064 -67 c4 3 7 18 7 32 0 38 17 13
25 -36 6 -38 4 -43 -12 -43 -49 2 -135 73 -119 99 5 7 22 -1 50 -24 24 -19 46
-32 49 -28z m-1206 31 c11 -13 24 -33 27 -45 4 -11 13 -27 21 -33 30 -25 15
-32 -49 -25 -69 8 -157 -9 -242 -46 -61 -25 -66 -24 -86 17 -26 50 -23 59 28
93 79 52 139 61 237 36 21 -6 27 -4 27 9 0 22 13 20 37 -6z m1400 -20 c35 -34
41 -63 20 -93 -16 -21 -37 -13 -37 14 0 10 -7 35 -15 54 -27 66 -18 73 32 25z
m950 -45 c-3 -10 -5 -2 -5 17 0 19 2 27 5 18 2 -10 2 -26 0 -35z m1170 -4 c21
-11 56 -38 78 -58 22 -21 61 -51 87 -67 55 -33 60 -44 20 -44 -33 0 -59 17
-132 85 -30 28 -67 59 -82 69 -28 18 -37 36 -18 36 5 0 26 -9 47 -21z m-2831
-41 c61 -28 79 -31 154 -31 47 1 96 3 110 5 23 3 32 -11 130 -208 58 -116 120
-233 138 -261 17 -27 32 -53 32 -57 0 -22 -226 51 -409 131 -69 31 -130 59
-135 64 -6 5 2 19 19 34 26 25 27 29 23 103 -3 46 -12 91 -22 111 -21 40 -106
122 -118 115 -4 -3 -18 -2 -31 2 -21 7 -21 7 -2 15 32 12 38 11 111 -23z
m2319 17 c38 -15 95 -71 95 -92 0 -19 -14 -16 -35 7 -10 11 -40 34 -66 51 -27
17 -46 35 -43 40 7 12 9 12 49 -6z m-615 -3 c13 9 24 6 48 -12 31 -23 32 -23
72 -5 22 10 43 15 47 12 9 -9 -99 -55 -147 -63 -36 -6 -40 -4 -50 20 -14 38
-13 63 1 49 8 -8 16 -9 29 -1z m-728 -134 c166 -184 294 -364 319 -448 11 -37
7 -66 -47 -317 -2 -14 -12 -23 -22 -23 -26 1 -72 69 -160 235 -44 83 -109 203
-145 269 -82 148 -94 194 -77 290 7 39 14 74 17 79 11 19 38 0 115 -85z
m-2550 56 c21 -11 46 -15 75 -11 23 2 43 2 43 -2 0 -5 -48 -39 -124 -87 l-28
-18 21 42 c11 23 21 44 21 48 0 4 -46 4 -102 1 -134 -6 -190 -33 -255 -122
-30 -41 -29 -14 2 34 42 67 103 105 195 121 74 13 119 11 152 -6z m3062 -9
c-4 -8 -9 -15 -13 -15 -13 0 -31 -82 -31 -146 0 -94 22 -124 93 -124 47 0 123
16 170 35 38 16 14 -15 -28 -35 -39 -19 -59 -21 -141 -18 -107 3 -115 9 -135
81 -12 46 4 180 26 214 18 26 68 33 59 8z m-2581 -11 c20 -3 39 -9 42 -13 2
-4 -18 -32 -45 -61 -27 -30 -52 -66 -55 -82 -8 -33 -24 -46 -36 -27 -15 24
-10 47 22 93 34 51 32 81 -4 97 -23 10 -17 9 76 -7z m652 8 l40 -7 -30 -11
c-16 -7 -68 -22 -115 -34 -120 -33 -183 -76 -195 -132 -8 -33 16 -68 46 -68
23 0 49 -10 49 -20 0 -12 -100 -52 -115 -46 -13 5 -13 114 0 136 3 6 4 19 0
30 -4 14 2 24 22 37 15 10 36 26 45 36 10 9 23 17 28 17 6 0 10 8 10 19 0 10
6 23 13 29 23 19 131 26 202 14z m1982 -43 c14 -31 18 -49 10 -46 -13 4 -51
97 -39 97 4 0 17 -23 29 -51z m-1022 11 c3 -5 30 -17 60 -25 29 -9 58 -22 64
-29 7 -8 16 -62 21 -120 5 -59 12 -111 15 -116 3 -5 1 -11 -4 -14 -18 -11
-181 264 -181 304 0 13 17 13 25 0z m1452 -54 c4 -5 -7 -6 -26 -2 -18 3 -46 6
-62 6 -32 0 -40 16 -11 22 20 4 87 -13 99 -26z m1448 -29 c68 -21 119 -53 170
-106 60 -61 74 -86 75 -128 0 -38 -11 -47 -51 -38 -36 8 -46 28 -29 60 7 13
10 35 6 50 -8 31 -95 118 -133 133 -86 32 -107 41 -93 41 8 1 33 -5 55 -12z
m-672 -66 c39 -41 57 -68 57 -85 0 -14 -2 -26 -4 -26 -5 0 -118 137 -130 158
-4 7 -2 12 7 12 8 0 39 -27 70 -59z m-1118 39 c3 -6 -1 -7 -9 -4 -18 7 -21 14
-7 14 6 0 13 -4 16 -10z m160 -25 c34 -27 19 -33 -26 -10 -16 9 -27 20 -24 25
9 15 17 12 50 -15z m-5 -40 c0 -2 -10 -10 -22 -16 -21 -11 -22 -11 -9 4 13 16
31 23 31 12z m577 -27 c-3 -8 -6 -5 -6 6 -1 11 2 17 5 13 3 -3 4 -12 1 -19z
m-3917 -98 c0 -10 -36 -77 -52 -97 -6 -7 -14 -13 -19 -13 -12 0 -11 37 1 45 6
4 17 22 25 41 13 31 45 48 45 24z m1397 -66 c-7 -8 -119 -24 -164 -24 -24 0
-43 5 -43 10 0 6 33 10 80 10 64 0 83 4 98 18 14 15 18 16 25 4 5 -7 7 -16 4
-18z m-1067 -4 c8 -4 29 -5 47 -3 26 4 38 -1 63 -25 17 -17 28 -37 24 -45 -6
-16 -67 -37 -108 -37 -30 0 -36 24 -9 38 25 14 9 37 -35 50 -22 7 -45 19 -52
27 -11 13 -8 14 21 9 19 -4 41 -10 49 -14z m1291 -41 c83 -43 101 -69 49 -69
-29 0 -128 70 -138 98 -6 18 3 15 89 -29z m2579 21 c6 -11 7 -20 2 -20 -10 0
-32 21 -32 32 0 16 19 8 30 -12z m739 -16 c26 -14 81 -88 81 -111 0 -22 -16
-15 -35 15 -32 49 -67 81 -99 88 -39 8 -48 13 -41 24 7 11 59 2 94 -16z
m-1599 6 c11 -1 10 -4 -4 -15 -29 -22 -56 -19 -56 6 0 17 4 20 23 15 12 -3 29
-6 37 -6z m-2495 -40 c3 -5 1 -10 -4 -10 -6 0 -11 5 -11 10 0 6 2 10 4 10 3 0
8 -4 11 -10z m2685 -31 c6 -11 26 -29 43 -39 26 -16 28 -20 12 -20 -30 0 -95
47 -95 69 0 19 29 12 40 -10z m-391 -44 c40 -45 49 -61 46 -83 -3 -15 -9 -54
-15 -86 -5 -33 -10 -85 -10 -117 0 -90 -9 -117 -45 -139 -72 -44 -131 -12
-141 76 -11 88 54 374 89 396 19 12 23 10 76 -47z m728 25 c4 -15 14 -20 42
-20 35 0 128 20 164 35 9 4 17 3 17 -1 0 -17 -115 -54 -165 -54 -28 1 -68 9
-90 20 -22 11 -46 19 -52 20 -7 0 -13 5 -13 10 0 6 21 10 46 10 37 0 47 -4 51
-20z m-2889 0 c17 0 32 -4 32 -9 0 -5 -15 -11 -32 -14 -35 -5 -78 10 -78 26 0
5 10 7 23 3 12 -3 37 -6 55 -6z m442 -20 c17 -5 -6 -8 -67 -9 -52 -1 -95 3
-98 9 -7 12 128 12 165 0z m78 -42 c-13 -38 -141 -46 -293 -19 -92 17 -98 19
-72 29 18 8 41 9 65 4 20 -5 85 -10 145 -11 89 -2 108 0 113 13 5 12 10 13 26
5 10 -6 18 -15 16 -21z m1906 -33 c48 -36 114 -62 179 -70 36 -5 57 -12 57
-20 0 -41 -243 -193 -317 -198 -27 -2 -28 -1 -27 48 2 151 30 265 65 265 5 0
25 -11 43 -25z m655 -35 c-19 -16 -45 -32 -59 -35 -14 -3 -39 -10 -56 -15 -41
-13 -117 -13 -109 0 3 6 30 10 58 10 51 0 125 28 172 63 35 27 30 8 -6 -23z
m-3014 -10 c3 -5 2 -10 -4 -10 -5 0 -13 5 -16 10 -3 6 -2 10 4 10 5 0 13 -4
16 -10z m803 -20 c6 0 12 -4 12 -10 0 -5 -24 -10 -53 -10 -76 0 -201 -34 -243
-66 -26 -20 -45 -27 -76 -26 -28 1 -61 -8 -104 -29 -34 -17 -69 -29 -76 -27
-8 3 -4 9 12 18 14 7 41 26 61 41 20 16 47 29 59 29 12 0 72 16 134 35 119 37
209 55 241 49 11 -2 26 -4 33 -4z m2476 -9 c3 -5 18 -12 33 -16 48 -12 95 -37
83 -45 -22 -14 -190 44 -190 65 0 9 69 5 74 -4z m-3084 -41 c0 -12 -42 -30
-71 -30 -10 0 -19 5 -19 10 0 6 11 10 24 10 14 0 28 5 31 10 8 13 35 13 35 0z
m3315 -60 c3 -5 -1 -10 -10 -10 -9 0 -13 5 -10 10 3 6 8 10 10 10 2 0 7 -4 10
-10z m-55 -20 c0 -5 -4 -10 -10 -10 -5 0 -10 5 -10 10 0 6 5 10 10 10 6 0 10
-4 10 -10z m-720 -15 c10 -12 4 -18 -34 -37 -62 -30 -82 -13 -29 25 44 31 47
32 63 12z m-2350 -34 c0 -5 -7 -14 -15 -21 -12 -10 -15 -10 -15 2 0 8 3 18 7
21 9 10 23 9 23 -2z m-60 -11 c0 -5 -5 -10 -11 -10 -5 0 -7 5 -4 10 3 6 8 10
11 10 2 0 4 -4 4 -10z m4165 -580 c8 -26 -3 -60 -19 -60 -14 0 -30 56 -20 71
9 16 32 10 39 -11z m87 8 c2 -6 2 -24 0 -40 -4 -23 -9 -28 -26 -26 -21 3 -33
36 -22 64 6 17 43 19 48 2z m-7 -228 c0 -48 -2 -55 -20 -55 -17 0 -20 8 -23
48 -2 26 -7 47 -12 47 -13 0 -24 -46 -15 -60 9 -15 -13 -40 -31 -33 -10 3 -14
22 -14 60 l0 54 58 -3 57 -3 0 -55z m-5217 -159 c2 -36 -1 -57 -10 -62 -20
-12 -38 10 -38 47 0 49 -18 42 -22 -8 -2 -33 -8 -44 -22 -46 -10 -2 -22 2 -27
10 -10 15 -12 102 -3 110 3 4 31 6 62 5 l57 -2 3 -54z m4375 42 c12 -7 8 -108
-5 -121 -7 -7 -17 -8 -30 -1 -11 6 -25 6 -35 1 -33 -17 -43 -3 -43 62 0 35 3
66 7 70 7 6 90 -2 106 -11z m-2087 -105 c-10 -101 -41 -110 -37 -11 2 64 6 73
28 73 13 0 15 -9 9 -62z m-368 0 l-3 -53 -42 -2 -43 -3 0 55 0 55 46 0 45 0
-3 -52z m196 1 c-2 -60 -6 -67 -46 -61 -40 6 -48 16 -48 63 0 46 6 51 54 47
l41 -3 -1 -46z m-422 31 c2 -5 1 -37 0 -70 -3 -43 -8 -60 -18 -60 -11 0 -14
15 -14 63 0 35 3 67 7 70 9 10 21 9 25 -3z m2042 -146 c17 -44 -4 -77 -42 -67
-18 4 -22 13 -22 44 0 36 2 39 29 39 17 0 31 -6 35 -16z m654 -151 l3 -73 -71
0 -70 0 0 49 c0 27 4 61 10 75 9 24 13 26 67 24 l58 -3 3 -72z m1178 65 c13
-20 10 -109 -3 -120 -27 -22 -43 -1 -43 55 0 63 25 99 46 65z m76 -44 c-2 -13
-8 -21 -13 -18 -11 6 -12 48 -2 57 11 12 20 -12 15 -39z m86 -6 c-3 -48 -5
-53 -28 -57 -24 -3 -24 -2 -9 15 11 13 14 25 9 39 -15 36 -11 55 11 55 18 0
20 -5 17 -52z m-5200 -30 c3 -64 2 -68 -22 -74 -13 -3 -35 -4 -47 -2 -22 3
-24 8 -27 76 l-3 73 48 -3 48 -3 3 -67z m164 10 c2 -35 0 -68 -4 -75 -5 -6
-28 -10 -51 -9 l-42 2 -3 58 c-4 80 -1 86 52 86 l44 0 4 -62z m1433 19 c4 -13
5 -50 3 -82 l-3 -60 -60 0 -60 0 -3 68 c-4 85 5 97 69 97 42 0 49 -3 54 -23z
m-195 -63 l0 -75 -52 3 c-35 2 -53 7 -52 16 1 6 2 39 3 72 l1 60 50 0 50 0 0
-76z m-350 -44 l0 -60 -40 0 c-48 0 -65 23 -52 72 7 26 13 32 31 30 13 -1 30
2 39 8 10 5 18 10 20 10 1 0 2 -27 2 -60z m4060 45 c0 -8 -4 -15 -10 -15 -5 0
-10 7 -10 15 0 8 5 15 10 15 6 0 10 -7 10 -15z m-4341 -9 c8 -10 8 -21 1 -40
-9 -24 -14 -27 -52 -24 -36 3 -44 7 -46 26 -2 13 2 30 8 38 16 18 74 18 89 0z
m-739 -179 c92 -25 125 -37 260 -99 112 -51 330 -202 330 -229 0 -17 -17 -8
-112 60 -172 122 -360 206 -521 231 -112 18 -289 8 -402 -24 -49 -14 -133 -46
-185 -72 -128 -64 -235 -169 -297 -294 -46 -91 -73 -181 -73 -242 0 -21 -4
-38 -9 -38 -5 0 -30 25 -56 56 -55 64 -56 71 -5 202 84 218 263 382 487 443
120 33 165 38 333 35 129 -3 171 -8 250 -29z m4600 -27 c98 -21 180 -50 230
-82 31 -20 33 -23 14 -26 -12 -1 -56 11 -99 28 -205 81 -410 89 -619 23 -265
-83 -498 -290 -572 -507 -18 -53 -39 -63 -29 -13 13 65 85 194 152 272 231
267 572 379 923 305z m-1070 11 c0 -5 -7 -14 -16 -22 -9 -7 -33 -48 -55 -91
-23 -45 -46 -78 -54 -78 -22 0 -19 10 24 81 22 35 36 67 32 71 -8 9 -115 -24
-168 -51 -87 -44 -141 -131 -146 -233 l-2 -43 103 1 c141 2 115 -14 -36 -23
l-122 -6 0 24 c0 13 6 47 14 74 42 158 148 246 349 290 78 17 77 17 77 6z
m-1082 -58 l-3 -48 -50 0 c-49 0 -50 0 -53 33 -5 54 2 62 58 62 l51 0 -3 -47z
m144 -4 c1 -28 1 -55 -2 -59 -3 -5 -21 -5 -40 -1 -34 7 -35 8 -38 59 l-3 52
40 0 39 0 4 -51z m745 -79 c-41 -44 -57 -70 -62 -100 -7 -39 -18 -50 -30 -30
-15 24 10 77 63 132 30 32 62 58 70 58 8 0 -10 -26 -41 -60z m-2272 5 c125
-33 354 -171 363 -218 5 -26 -13 -20 -68 21 -69 52 -202 125 -275 150 -136 48
-301 48 -441 2 -62 -21 -94 -21 -94 -1 0 13 111 49 185 61 82 12 258 5 330
-15z m3941 -46 c75 -13 190 -68 228 -108 40 -42 26 -50 -21 -12 -86 69 -214
100 -333 82 -84 -13 -156 -47 -227 -107 -28 -24 -54 -44 -57 -44 -33 0 79 121
139 150 42 20 148 48 191 49 11 1 47 -4 80 -10z m-2413 -28 c32 -11 83 -34
112 -51 56 -32 175 -140 175 -159 0 -22 -22 -10 -73 38 -127 119 -285 180
-469 181 -29 0 -48 4 -48 11 0 20 234 4 303 -20z m-1531 -17 c10 -6 -58 -9
-183 -9 -109 0 -196 1 -192 2 69 22 340 27 375 7z m1171 -161 c-41 -53 -43
-58 -59 -121 -26 -109 -10 -226 46 -346 42 -88 147 -200 252 -269 87 -56 98
-77 42 -77 -58 0 -150 56 -239 145 -126 125 -185 259 -185 419 0 109 25 169
101 241 66 63 88 67 42 8z m-1433 -29 c178 -25 287 -72 415 -180 105 -89 79
-103 -44 -24 -213 137 -470 200 -728 180 -54 -4 -100 -6 -102 -4 -6 6 51 25
99 34 77 13 241 11 360 -6z m3813 -20 c127 -33 218 -98 263 -189 22 -45 25
-64 22 -117 -3 -35 -11 -87 -19 -117 -12 -46 -23 -61 -79 -110 -112 -97 -197
-157 -208 -147 -3 4 0 12 6 18 7 7 12 25 12 40 0 15 4 28 9 28 21 0 169 152
196 202 67 122 21 242 -123 321 -71 39 -164 60 -269 61 -51 0 -93 4 -93 8 0
21 203 23 283 2z m-1530 -107 c21 -7 38 -16 38 -22 0 -6 -49 -13 -110 -17
-191 -12 -366 -72 -467 -159 -25 -22 -49 -38 -51 -35 -10 10 46 93 88 130 54
49 150 94 225 105 86 12 233 11 277 -2z m-3863 -54 c0 -5 -12 -26 -25 -48 -14
-22 -30 -71 -37 -112 -6 -40 -16 -73 -20 -73 -14 0 -9 109 7 146 18 44 53 94
66 94 5 0 9 -3 9 -7z m1642 -68 c13 -8 -15 -11 -95 -11 -133 1 -216 -21 -342
-88 -93 -50 -173 -82 -182 -73 -3 4 9 13 28 21 19 8 77 40 129 70 138 82 189
96 330 93 63 -1 123 -7 132 -12z m2531 -318 c72 -55 71 -145 -3 -195 -49 -33
-146 -28 -186 8 -33 31 -54 72 -54 104 0 31 44 84 85 102 45 21 117 12 158
-19z m-2288 -141 c48 -20 69 -57 62 -109 -8 -61 -42 -87 -113 -87 -69 0 -107
19 -129 66 -46 97 66 177 180 130z"/>
<path d="M3235 1343 c-70 -19 -143 -27 -330 -39 -255 -16 -265 -18 -265 -34 0
-15 273 -191 419 -271 122 -67 286 -139 316 -139 21 0 19 15 -9 58 -60 92 -72
249 -27 376 31 86 32 86 -104 49z"/>
<path d="M4650 5330 c0 -5 7 -10 15 -10 8 0 15 5 15 10 0 6 -7 10 -15 10 -8 0
-15 -4 -15 -10z"/>
<path d="M4542 5228 c2 -6 10 -14 16 -16 7 -2 10 2 6 12 -7 18 -28 22 -22 4z"/>
<path d="M4605 5180 c-3 -5 -1 -10 4 -10 6 0 11 5 11 10 0 6 -2 10 -4 10 -3 0
-8 -4 -11 -10z"/>
<path d="M4156 4901 c-6 -9 64 -124 71 -117 3 3 0 26 -7 50 -12 43 -53 86 -64
67z"/>
<path d="M6249 1568 c-35 -12 -63 -79 -45 -104 15 -20 36 -11 36 17 0 11 7 22
15 25 8 4 15 15 15 25 0 10 4 19 9 19 5 0 15 2 23 5 7 3 19 1 27 -4 12 -8 13
-12 1 -26 -11 -13 -11 -18 0 -28 10 -9 13 -9 17 1 5 14 33 17 33 3 0 -5 -7
-11 -15 -15 -18 -7 -20 -26 -2 -26 6 0 21 7 31 15 55 41 -69 120 -145 93z"/>
<path d="M6365 1410 c-3 -5 -2 -10 4 -10 5 0 13 5 16 10 3 6 2 10 -4 10 -5 0
-13 -4 -16 -10z"/>
<path d="M7671 8957 c15 -12 75 -58 135 -102 236 -174 508 -422 702 -643 74
-84 136 -151 139 -149 12 13 -51 101 -119 167 -42 41 -82 87 -87 103 -6 15
-19 30 -28 34 -27 9 -64 45 -74 71 -5 12 -19 26 -32 31 -13 5 -68 53 -121 105
-53 53 -112 103 -131 111 -23 9 -35 21 -35 34 0 12 -11 23 -31 30 -17 6 -33
20 -36 30 -5 20 -63 61 -85 61 -5 0 -32 18 -58 40 -26 22 -51 40 -55 40 -4 0
-24 14 -45 30 -44 35 -79 41 -39 7z"/>
<path d="M8744 7926 c51 -66 117 -157 147 -201 43 -63 55 -75 57 -58 2 13 -11
40 -32 68 -20 26 -36 52 -36 60 0 7 -9 15 -20 18 -11 3 -24 16 -30 29 -22 52
-58 104 -78 113 -13 6 -24 22 -28 41 -4 24 -13 33 -39 41 -32 10 -30 7 59
-111z"/>
<path d="M8962 7618 c94 -146 256 -452 343 -648 21 -47 42 -89 47 -95 14 -14
-2 66 -16 85 -7 8 -17 26 -22 40 -6 14 -27 59 -47 100 -21 41 -37 84 -37 96 0
12 -15 41 -34 64 -19 24 -37 59 -41 77 -3 19 -12 33 -20 33 -8 0 -15 7 -15 15
0 9 -7 18 -15 21 -8 4 -15 15 -15 26 0 18 -33 83 -49 98 -7 6 -29 43 -49 83
-7 15 -20 27 -29 27 -14 0 -14 -3 -1 -22z"/>
<path d="M9360 6849 c1 -8 7 -25 15 -39 l14 -25 1 26 c0 15 -7 32 -15 39 -12
10 -15 10 -15 -1z"/>
<path d="M9390 6770 c0 -3 16 -50 36 -105 121 -338 208 -716 250 -1085 21
-191 29 -637 15 -845 -43 -615 -199 -1186 -476 -1750 -139 -283 -277 -508
-464 -759 -45 -60 -79 -111 -76 -114 6 -7 32 25 45 56 5 12 16 22 24 22 15 0
66 59 66 75 0 4 11 23 25 41 14 18 25 36 25 40 0 4 11 22 25 40 14 18 25 37
25 43 0 5 8 16 19 23 10 7 22 24 26 38 4 13 18 33 32 43 13 10 30 33 38 50 18
38 31 60 68 108 15 20 27 43 27 51 0 8 9 23 20 33 11 10 20 24 20 32 0 13 5
24 32 76 6 12 18 36 26 52 9 17 19 37 24 45 4 8 11 22 14 30 4 8 15 33 25 56
11 22 19 44 19 49 0 23 45 98 62 103 12 3 18 14 18 33 0 27 5 43 36 116 8 17
14 40 14 51 0 12 5 24 10 27 6 3 10 16 10 28 0 12 11 43 25 69 14 26 25 58 25
71 0 14 7 38 15 53 8 16 15 41 15 56 0 15 4 29 9 32 5 4 12 24 16 46 4 22 11
42 15 45 5 3 7 12 3 20 -3 9 -1 21 5 28 5 6 13 35 17 62 4 28 10 55 15 60 4 6
10 36 13 68 3 32 10 64 15 70 13 17 32 100 32 141 0 19 4 37 9 40 4 3 10 66
13 141 4 93 10 140 19 151 18 22 21 842 3 865 -6 8 -15 68 -19 134 -4 66 -10
125 -15 130 -4 6 -10 50 -14 100 -4 53 -13 99 -22 113 -8 12 -18 45 -21 72 -3
28 -9 50 -13 50 -4 0 -10 30 -13 66 -4 37 -11 72 -18 80 -6 7 -8 18 -5 23 4 5
2 12 -4 16 -5 3 -10 23 -10 44 0 20 -7 46 -15 57 -8 10 -17 40 -21 67 -4 26
-10 47 -14 47 -4 0 -11 17 -15 38 -4 20 -11 42 -17 49 -5 7 -7 16 -4 22 3 5
-1 22 -9 37 -8 16 -15 37 -15 46 0 9 -4 20 -10 23 -5 3 -10 15 -10 26 0 11 -4
18 -9 14 -6 -3 -14 3 -20 12 -6 10 -11 16 -11 13z"/>
<path d="M499 6533 c-11 -3 -19 -19 -24 -48 -3 -25 -10 -47 -15 -50 -5 -3 -12
-27 -15 -53 -4 -26 -13 -61 -21 -79 -8 -17 -14 -42 -14 -55 0 -13 -5 -29 -10
-34 -6 -6 -16 -52 -22 -102 -6 -51 -15 -92 -19 -92 -4 0 -11 -15 -14 -32 -4
-18 -11 -37 -15 -43 -5 -5 -11 -73 -15 -150 -4 -77 -10 -144 -13 -149 -3 -6
-4 -33 -3 -62 1 -29 -2 -55 -8 -58 -5 -4 -13 -38 -17 -76 -4 -39 -11 -73 -15
-76 -12 -7 -12 -664 0 -664 4 0 11 -32 15 -72 3 -39 10 -76 15 -82 4 -6 11
-55 14 -109 4 -54 10 -103 14 -110 3 -6 5 -33 4 -60 -1 -26 2 -53 7 -60 5 -7
13 -42 17 -79 3 -38 10 -68 14 -68 5 0 11 -21 15 -46 3 -26 11 -53 17 -60 6
-8 9 -23 6 -34 -3 -11 -2 -22 3 -25 4 -2 10 -32 14 -64 4 -33 11 -63 15 -65 5
-3 11 -28 15 -55 4 -28 10 -53 15 -55 5 -3 12 -27 16 -53 4 -25 15 -62 26 -82
10 -20 19 -43 19 -53 0 -9 5 -20 10 -23 6 -3 10 -13 10 -21 0 -9 11 -40 25
-70 14 -30 25 -59 25 -64 0 -6 5 -10 10 -10 6 0 10 -9 10 -21 0 -11 9 -37 19
-57 31 -59 61 -131 61 -146 0 -8 5 -18 10 -21 6 -3 10 -14 10 -24 0 -10 9 -21
20 -24 14 -4 20 -14 20 -34 0 -16 12 -45 26 -64 14 -19 30 -44 35 -56 5 -13
13 -23 19 -23 5 0 10 -6 10 -13 0 -21 86 -186 117 -226 16 -20 40 -57 52 -83
13 -27 27 -48 32 -48 5 0 9 -5 9 -11 0 -6 16 -29 35 -50 19 -22 35 -46 35 -54
0 -16 98 -125 112 -125 5 0 -19 37 -53 82 -273 368 -502 810 -650 1260 -56
169 -131 449 -163 608 -93 465 -103 1128 -26 1630 35 223 102 514 156 673 13
39 23 71 21 72 -1 1 -9 0 -18 -2z"/>
<path d="M1240 2188 c0 -8 18 -36 40 -61 22 -25 40 -51 40 -59 0 -16 107 -128
122 -128 6 0 -5 17 -24 38 -18 20 -62 75 -97 122 -81 107 -81 107 -81 88z"/>
<path d="M8575 2002 c-44 -53 -185 -201 -313 -329 -128 -128 -228 -233 -223
-233 5 0 15 7 22 16 7 9 21 19 31 23 26 9 188 171 188 187 0 8 7 14 16 14 17
0 183 167 184 184 0 5 38 50 84 100 46 50 86 101 90 114 4 12 6 22 4 22 -2 0
-39 -44 -83 -98z"/>
<path d="M1450 1924 c0 -6 9 -19 20 -29 11 -10 20 -23 20 -30 0 -6 45 -56 100
-111 55 -54 103 -109 106 -121 4 -13 12 -23 18 -23 7 0 68 -54 137 -120 68
-65 129 -119 134 -120 6 0 15 -10 20 -22 6 -13 21 -28 35 -35 14 -6 49 -32 78
-57 30 -25 60 -46 68 -46 8 0 14 -5 14 -10 0 -15 34 -50 62 -64 51 -27 74 -42
106 -68 18 -16 38 -28 44 -28 6 0 42 -29 79 -65 37 -36 74 -65 83 -65 23 0 90
-37 116 -65 14 -15 30 -23 41 -20 10 4 22 -3 32 -18 10 -16 29 -26 55 -31 22
-3 42 -12 45 -20 3 -8 27 -24 54 -37 26 -13 50 -26 53 -29 5 -5 77 -40 157
-76 23 -10 43 -25 43 -31 0 -7 11 -13 24 -13 14 0 28 -4 31 -10 3 -5 19 -10
34 -10 15 0 42 -11 61 -25 19 -14 46 -25 61 -25 15 0 31 -5 34 -10 3 -6 16
-10 29 -10 13 0 44 -11 70 -25 26 -14 59 -25 74 -25 15 0 36 -7 46 -15 11 -8
30 -15 41 -15 12 0 36 -7 54 -16 18 -9 51 -18 74 -21 23 -3 47 -9 52 -13 6 -5
31 -11 58 -15 26 -4 49 -11 52 -15 3 -5 29 -11 58 -15 28 -4 57 -11 62 -15 6
-4 67 -14 138 -21 70 -7 127 -16 127 -20 0 -3 55 -10 123 -14 67 -4 127 -11
134 -17 17 -14 677 -16 694 -1 8 6 68 14 134 18 66 4 125 11 131 16 7 5 43 12
80 15 38 3 76 8 84 11 8 3 30 5 48 4 18 -2 38 2 45 7 7 5 35 13 62 17 28 4 55
10 60 15 6 4 34 10 64 13 29 4 58 10 65 15 6 5 40 15 76 22 36 7 69 17 75 21
5 5 17 9 26 9 9 0 22 6 28 14 6 8 33 17 59 21 26 3 67 15 92 27 77 34 84 36
132 43 25 3 52 13 58 20 7 8 18 15 25 15 7 0 24 9 38 20 14 11 31 20 39 20 7
0 72 29 143 64 72 35 137 67 145 70 8 3 29 15 45 26 17 11 41 25 55 31 14 6
32 15 40 20 8 4 40 21 70 36 30 15 75 45 99 65 24 21 47 35 52 32 12 -7 69 18
69 30 0 11 43 56 55 56 6 1 26 14 45 30 19 17 39 30 46 30 6 0 18 7 25 17 8 9
28 22 45 29 41 17 94 62 94 79 0 13 34 37 73 51 9 3 17 10 17 15 0 5 8 9 18 9
11 0 38 22 61 50 23 27 53 53 66 56 20 5 34 28 35 57 0 4 -39 -27 -87 -69 -98
-84 -295 -233 -448 -339 -329 -226 -779 -450 -1170 -582 -569 -192 -1290 -258
-1915 -177 -499 65 -909 193 -1381 429 -280 141 -451 247 -725 453 -267 200
-503 415 -747 682 -53 58 -97 100 -97 94z"/>
</g>
</svg>
